<?xml version="1.0" standalone="no"?>
<!DOCTYPE svg PUBLIC "-//W3C//DTD SVG 20010904//EN"
 "http://www.w3.org/TR/2001/REC-SVG-20010904/DTD/svg10.dtd">
<svg version="1.0" xmlns="http://www.w3.org/2000/svg"
 width="800.000000pt" height="800.000000pt" viewBox="0 0 800.000000 800.000000"
 preserveAspectRatio="xMidYMid meet">
<metadata>
Created by potrace 1.14, written by Peter Selinger 2001-2017
</metadata>
<g transform="translate(0.000000,800.000000) scale(0.100000,-0.100000)"
fill="#000000" stroke="none">
<path d="M3725 7993 c-16 -1 -79 -8 -140 -14 -60 -6 -119 -13 -130 -14 -64
-10 -173 -28 -190 -31 -11 -2 -31 -6 -45 -9 -46 -9 -147 -32 -280 -65 -249
-61 -686 -242 -915 -380 -27 -16 -57 -33 -65 -36 -20 -9 -268 -172 -301 -198
-15 -12 -39 -30 -55 -41 -37 -26 -128 -97 -134 -104 -3 -4 -21 -19 -40 -35
-142 -116 -381 -352 -475 -469 -16 -21 -40 -49 -52 -62 -12 -14 -34 -42 -50
-62 -15 -21 -36 -47 -45 -57 -32 -35 -175 -250 -250 -376 -41 -69 -108 -192
-148 -275 -40 -82 -76 -157 -81 -167 -13 -26 -110 -279 -126 -328 -37 -114
-91 -309 -103 -370 -5 -25 -12 -56 -15 -70 -3 -14 -7 -36 -10 -50 -3 -14 -7
-35 -9 -46 -2 -12 -7 -37 -10 -55 -3 -19 -7 -43 -10 -54 -2 -11 -7 -49 -11
-85 -4 -36 -9 -73 -10 -82 -26 -135 -27 -777 -1 -914 2 -10 7 -44 10 -75 4
-31 8 -66 11 -77 2 -11 6 -37 10 -58 13 -84 16 -100 22 -129 4 -16 7 -32 8
-35 1 -3 5 -23 9 -45 22 -113 110 -411 142 -482 8 -17 14 -36 14 -42 0 -6 4
-19 9 -29 6 -9 22 -48 37 -86 14 -38 30 -77 34 -85 14 -26 55 -116 55 -121 2
-11 127 -247 164 -308 38 -63 232 -356 240 -362 3 -3 25 -30 48 -60 146 -194
376 -435 567 -595 26 -22 57 -49 69 -59 100 -86 339 -252 514 -355 124 -73
443 -231 466 -231 7 0 17 -4 22 -9 9 -7 112 -49 140 -56 6 -1 17 -5 25 -8 53
-22 213 -74 285 -92 17 -5 35 -10 40 -12 6 -1 37 -9 70 -17 33 -8 60 -15 60
-16 0 -1 9 -3 20 -5 19 -2 42 -7 105 -20 14 -3 39 -8 55 -10 17 -3 56 -10 87
-16 31 -5 78 -12 105 -14 26 -3 58 -7 71 -10 140 -27 768 -27 922 -1 14 3 48
7 75 11 69 8 198 30 290 49 55 11 164 37 195 45 205 57 266 77 430 141 167 64
459 206 585 283 70 43 334 218 352 233 12 11 34 28 49 39 176 127 452 390 609
580 28 33 52 62 55 65 9 8 53 64 77 96 12 16 36 49 55 74 38 52 178 258 178
263 0 2 24 44 54 93 29 49 86 157 126 239 40 83 76 158 81 167 48 95 182 488
194 568 0 3 3 10 7 15 3 6 14 46 23 90 9 44 19 89 21 100 2 11 6 31 9 45 3 14
7 35 9 46 2 12 7 37 10 55 3 19 7 43 10 54 2 11 7 49 11 85 4 36 9 73 10 82
27 138 27 756 0 919 -2 13 -6 47 -10 74 -7 55 -14 106 -21 139 -2 11 -7 41
-10 66 -4 25 -10 55 -15 67 -5 13 -7 23 -4 23 2 0 -1 15 -6 33 -5 17 -12 46
-14 62 -5 30 -12 54 -61 220 -27 95 -57 187 -73 227 -5 12 -26 66 -47 118 -20
52 -40 102 -44 110 -126 261 -224 448 -248 472 -7 7 -12 16 -12 20 0 23 -254
378 -345 483 -153 177 -349 372 -475 476 -23 19 -52 42 -63 53 -74 64 -414
306 -430 306 -2 0 -42 23 -88 51 -75 45 -380 203 -387 200 -1 -1 -15 5 -30 12
-15 8 -54 24 -87 36 -33 13 -69 27 -80 31 -61 26 -272 95 -350 115 -16 5 -34
10 -40 12 -5 1 -37 9 -70 17 -33 8 -60 15 -60 16 0 1 -9 3 -20 5 -11 1 -33 5
-50 9 -16 3 -41 8 -55 11 -14 2 -36 7 -50 10 -33 6 -73 13 -129 21 -25 4 -54
8 -63 10 -9 1 -48 6 -85 10 -37 3 -79 8 -93 11 -31 5 -594 11 -635 6z"/>
</g>
</svg>
